<mxfile host="app.diagrams.net" modified="2023-06-24T03:22:29.668Z" agent="Mozilla/5.0 (Windows NT 10.0; Win64; x64; rv:109.0) Gecko/20100101 Firefox/114.0" version="21.3.3" etag="lc9MKAlAybOdidDyrmuz" type="github">
  <diagram name="Page-1" id="mJ8RSla3d9RrqgKB09Me">
    <mxGraphModel>
      <root>
        <mxCell id="0" />
        <mxCell id="1" parent="0" />
      </root>
    </mxGraphModel>
  </diagram>
</mxfile>
